<svg width="100%" height="100%" viewBox="0 0 400 400" fill="none" xmlns="http://www.w3.org/2000/svg">
  <!-- Background circle -->
  <circle cx="200" cy="200" r="180" fill="#E8F5E9"/>
  
  <!-- Shield shape (main) -->
  <path d="M 200 60 L 290 90 L 290 200 Q 290 260 200 300 Q 110 260 110 200 L 110 90 Z" fill="#4CAF50"/>
  <path d="M 200 70 L 280 95 L 280 200 Q 280 253 200 288 Q 120 253 120 200 L 120 95 Z" fill="#66BB6A"/>
  
  <!-- Inner shield detail -->
  <path d="M 200 85 L 265 105 L 265 195 Q 265 240 200 270 Q 135 240 135 195 L 135 105 Z" fill="#81C784" opacity="0.5"/>
  
  <!-- Large checkmark -->
  <path d="M 160 200 L 185 225 L 240 165" stroke="#FFFFFF" stroke-width="18" stroke-linecap="round" stroke-linejoin="round" fill="none"/>
  
  <!-- Decorative stars -->
  <g transform="translate(130, 120)">
    <path d="M 0 -10 L 3 -3 L 10 -3 L 4 2 L 6 10 L 0 5 L -6 10 L -4 2 L -10 -3 L -3 -3 Z" fill="#FFD700"/>
  </g>
  <g transform="translate(270, 120)">
    <path d="M 0 -10 L 3 -3 L 10 -3 L 4 2 L 6 10 L 0 5 L -6 10 L -4 2 L -10 -3 L -3 -3 Z" fill="#FFD700"/>
  </g>
  <g transform="translate(200, 320)">
    <path d="M 0 -8 L 2.5 -2.5 L 8 -2.5 L 3.5 1.5 L 5 8 L 0 4 L -5 8 L -3.5 1.5 L -8 -2.5 L -2.5 -2.5 Z" fill="#FFD700"/>
  </g>
  
  <!-- Badge ribbon at bottom -->
  <path d="M 185 280 L 185 335 L 200 325 L 215 335 L 215 280 Z" fill="#2E7D32"/>
  <path d="M 185 280 L 185 335 L 200 325 L 215 335 L 215 280 Z" fill="#388E3C"/>
</svg>